<svg width="1850" height="1850" viewBox="0 0 1850 1850" fill="none" xmlns="http://www.w3.org/2000/svg">
<g clip-path="url(#clip0_2021_2523)">
<path d="M263.921 278.149C621.205 -86.9933 1206.85 -93.3637 1571.99 263.921C1937.13 621.205 1943.5 1206.85 1586.22 1571.99C1228.94 1937.13 643.292 1943.5 278.149 1586.22C-86.9933 1228.94 1298.1 1836.42 263.921 278.149Z" fill="#3B4860"/>
<path d="M970.11 1849.08C459.846 1873.83 26.1344 1480.24 1.38781 969.978C-23.3588 459.714 370.231 26.0024 880.494 1.25586C1390.76 -23.4907 1824.47 370.099 1849.22 880.362C1873.96 1390.63 1271.55 3.31513 970.11 1849.08Z" fill="#449EAE"/>
<path d="M1139.58 576.107C675.041 784.745 288.851 1767.01 80.8304 1303.85C-127.19 840.683 80.7567 296.081 545.293 87.4435C1009.83 -121.194 1555.04 85.1393 1763.06 548.302C1971.09 1011.46 1604.11 367.47 1139.58 576.107Z" fill="#F1B347"/>
<path d="M66.9482 1269.75C-123.336 795.643 106.744 257.051 580.847 66.7669C1054.95 -123.517 1593.54 106.563 1783.83 580.666C1974.11 1054.77 1744.03 1593.36 1269.93 1783.64C795.824 1973.93 257.232 1743.85 66.9482 1269.75ZM1772.73 585.118C1584.91 117.143 1053.28 -109.964 585.3 77.861C117.324 265.686 -109.783 797.317 78.0423 1265.29C265.867 1733.27 797.499 1960.38 1265.47 1772.55C1733.45 1584.73 1960.56 1053.09 1772.73 585.118Z" fill="#105662"/>
</g>
<defs>
<clipPath id="clip0_2021_2523">
<rect width="1850" height="1850" fill="white"/>
</clipPath>
</defs>
</svg>
